HIERARCHY
ROOT Hips
{
	OFFSET 0.00000 0.00000 0.00000
	CHANNELS 6 Xposition Yposition Zposition Zrotation Yrotation Xrotation 
	JOINT LHipJoint
	{
		OFFSET 0 0 0
		CHANNELS 3 Zrotation Yrotation Xrotation
		JOINT LeftHip
		{
			OFFSET 1.56857 -1.73443 1.15205
			CHANNELS 3 Zrotation Yrotation Xrotation
			JOINT LeftKnee
			{
				OFFSET 2.39362 -6.57643 0.00000
				CHANNELS 3 Zrotation Yrotation Xrotation
				JOINT LeftAnkle
				{
					OFFSET 2.50952 -6.89485 0.00000
					CHANNELS 3 Zrotation Yrotation Xrotation
					JOINT LeftToe
					{
						OFFSET 0.17171 -0.47178 1.88682
						CHANNELS 3 Zrotation Yrotation Xrotation
						End Site
						{
							OFFSET 0.00000 -0.00000 0.98146
						}
					}
				}
			}
		}
	}
	JOINT RHipJoint
	{
		OFFSET 0 0 0
		CHANNELS 3 Zrotation Yrotation Xrotation
		JOINT RightHip
		{
			OFFSET -1.28153 -1.73443 1.15205
			CHANNELS 3 Zrotation Yrotation Xrotation
			JOINT RightKnee
			{
				OFFSET -2.26861 -6.23296 0.00000
				CHANNELS 3 Zrotation Yrotation Xrotation
				JOINT RightAnkle
				{
					OFFSET -2.54143 -6.98254 0.00000
					CHANNELS 3 Zrotation Yrotation Xrotation
					JOINT RightToe
					{
						OFFSET -0.23309 -0.64041 1.93119
						CHANNELS 3 Zrotation Yrotation Xrotation
						End Site
						{
							OFFSET -0.00000 -0.00000 1.02013
						}
					}
				}
			}
		}
	}
	JOINT lowerback
	{
		OFFSET 0 0 0
		CHANNELS 3 Zrotation Yrotation Xrotation
		JOINT Chest
		{
			OFFSET -0.07096 2.10460 -0.27878
			CHANNELS 3 Zrotation Yrotation Xrotation
			JOINT Chest2
			{
				OFFSET -0.00826 2.13662 -0.08279
				CHANNELS 3 Zrotation Yrotation Xrotation
				JOINT lowerneck
				{
					OFFSET 0 0 0
					CHANNELS 3 Zrotation Yrotation Xrotation
					JOINT Neck
					{
						OFFSET 0.03239 1.77799 0.24435
						CHANNELS 3 Zrotation Yrotation Xrotation
						JOINT Head
						{
							OFFSET 0.01026 1.74194 -0.49664
							CHANNELS 3 Zrotation Yrotation Xrotation
							End Site
							{
								OFFSET 0.00170 1.83057 -0.19653
							}
						}
					}
				}
				JOINT LeftCollar
				{
					OFFSET 0 0 0
					CHANNELS 3 Zrotation Yrotation Xrotation
					JOINT LeftShoulder
					{
						OFFSET 3.19178 1.35907 -0.31412
CHANNELS 3 Zrotation Xrotation Yrotation
						JOINT LeftElbow
						{
OFFSET 0 -4.852470 -0.000000
CHANNELS 3 Zrotation Xrotation Yrotation
							JOINT LeftWrist
							{
OFFSET 0 -3.555840 0.000000
CHANNELS 3 Zrotation Xrotation Yrotation
								JOINT lhand
								{
									OFFSET 0 0 0
CHANNELS 3 Zrotation Xrotation Yrotation
									JOINT LFingers
									{
OFFSET 0 -0.693200 0.000000
CHANNELS 3 Zrotation Xrotation Yrotation
										End Site
										{
OFFSET 0 -0.558880 0.000000
										}
									}
								}
								JOINT LThumb
								{
OFFSET 0 0.000000 0.000000
CHANNELS 3 Zrotation Xrotation Yrotation
									End Site
									{
OFFSET 0 -0.567410 0.567410
									}
								}
							}
						}
					}
				}
				JOINT RightCollar
				{
					OFFSET 0 0 0
					CHANNELS 3 Zrotation Yrotation Xrotation
					JOINT RightShoulder
					{
						OFFSET -3.28999 1.24191 -0.26899
CHANNELS 3 Zrotation Xrotation Yrotation
						JOINT RightElbow
						{
OFFSET 0 -4.644620 0.000000
CHANNELS 3 Zrotation Xrotation Yrotation
							JOINT RightWrist
							{
OFFSET 0 -3.407030 0.000000
CHANNELS 3 Zrotation Xrotation Yrotation
								JOINT rhand
								{
									OFFSET 0 0 0
CHANNELS 3 Zrotation Xrotation Yrotation
									JOINT RFingers
									{
OFFSET 0 -0.619580 0.000000
CHANNELS 3 Zrotation Xrotation Yrotation
										End Site
										{
OFFSET 0 -0.499520 0.000000
										}
									}
								}
								JOINT RThumb
								{
OFFSET 0 0.000000 0.000000
CHANNELS 3 Zrotation Xrotation Yrotation
									End Site
									{
OFFSET 0 -0.507150 0.507150
									}
								}
							}
						}
					}
				}
			}
		}
	}
}
MOTION
Frames: 8
Frame Time: .0083333
-34.0558 15.5675 -0.5649 95.6315 79.8899 96.7975 0.0000 0.0000 0.0000 -36.3149 -1.5827 -9.9566 4.0222 12.1899 36.4073 2.5017 -10.0080 -28.4639 0.3155 3.6106 9.9835 0.0000 0.0000 0.0000 1.9530 -1.1124 -17.3289 -9.5992 -17.1782 58.1400 -40.4381 12.0609 172.1416 -0.8277 -5.8042 16.2174 -12.5688 0.9574 15.2535 -3.7125 -0.6098 3.3823 3.2146 -0.0350 -4.8013 -2.0235 -0.5994 -31.4781 5.1376 -0.9159 12.6663 2.0014 0.1466 9.0151 -0.0000 -0.0000 0.0000 14.0917 1.3788 -53.1431 97.6375 -59.7784 66.6094 48.0924 -44.1382 29.9725 0.0 0.0 0.0 -7.1250 0.0 0.0 9.3800 -10.3469 11.0476 -0.0000 -0.0000 0.0000 -13.7193 30.7134 52.7048 -92.5326 -59.9758 -62.1931 -36.5883 -2.279 26.3788 0.0 0.0 0.0 7.1250 0.0 -0.0 -8.1875 61.4976 3.3005
-33.6455 15.6090 -0.5797 95.7099 79.4083 96.7769 0.0000 0.0000 0.0000 -36.8489 -0.2175 -7.5750 3.7015 11.7522 34.8608 2.6150 -10.3221 -29.1204 0.2170 2.9986 8.2749 0.0000 0.0000 0.0000 1.3648 -0.3367 -20.4799 -9.3882 -17.0512 57.4234 -40.3259 10.5510 172.7115 -0.6079 -4.9903 13.8810 -12.4548 0.9888 16.0213 -4.2523 -0.7300 3.0513 2.5904 -0.0376 -5.5746 -1.8687 -0.8526 -30.9240 5.3668 -1.3619 12.4371 1.9798 -0.0337 8.8715 0.0000 0.0000 0.0000 13.832 -0.8693 -53.5348 99.7595 -59.637 68.4417 47.9388 -41.8717 30.3577 0.0 0.0 0.0 -7.1250 0.0 0.0 9.1833 -10.7178 10.8579 0.0000 0.0000 0.0000 -13.3256 34.2329 51.9681 -92.9309 -59.9675 -62.5379 -35.8353 -2.7552 26.4023 0.0 0.0 0.0 7.1250 0.0 -0.0 -7.2132 61.3189 2.8748
-33.2108 15.6542 -0.6026 94.0328 79.1616 95.3162 0.0000 0.0000 0.0000 -37.1824 0.9833 -5.2736 3.3047 11.1727 32.8645 2.6758 -10.8920 -29.4739 0.2342 3.1144 8.5974 0.0000 0.0000 0.0000 0.8943 0.8176 -23.7866 -9.2739 -16.9808 57.0326 -40.2204 9.0090 172.9346 -0.5067 -4.5630 12.6662 -12.8422 0.9151 15.7549 -4.2564 -0.8715 2.8894 2.8260 -0.0972 -5.5788 -1.8987 -0.7768 -30.6877 5.3210 -1.2520 12.5340 1.9845 0.0053 8.8648 0.0000 0.0000 0.0000 12.6705 -3.2514 -53.2025 101.3925 -59.5039 69.8497 48.1996 -41.7493 32.3578 0.0 0.0 0.0 -7.1250 0.0 0.0 8.7056 -13.1302 10.5627 0.0000 0.0000 0.0000 -14.2159 37.0604 52.1323 -93.3465 -59.9576 -62.8978 -34.4742 -5.0407 24.4838 0.0 0.0 0.0 7.1250 0.0 -0.0 -5.8599 58.8002 1.9811
-32.7326 15.7214 -0.6125 97.4914 79.0735 98.5626 0.0000 0.0000 0.0000 -37.1805 1.4678 -1.7250 2.8504 10.4488 30.4426 2.6745 -11.4709 -29.4830 0.2944 3.4893 9.6440 0.0000 0.0000 0.0000 1.0213 0.5824 -26.1958 -9.4769 -17.1050 57.7251 -40.1971 8.6847 172.8424 -0.4912 -4.4938 12.4702 -13.0568 0.5208 15.4794 -4.0817 -1.3387 3.1038 3.2233 -0.3523 -5.1152 -1.9006 -0.6272 -31.2066 5.1656 -1.0285 12.8380 1.9730 0.0993 9.0398 -0.0000 -0.0000 0.0000 11.6084 -5.8183 -53.0114 103.7321 -59.2753 71.8634 48.0009 -39.3003 31.9491 0.0 0.0 0.0 -7.1250 0.0 0.0 8.7301 -12.569 10.5289 -0.0000 -0.0000 0.0000 -15.1019 39.5195 52.198 -93.7841 -59.9458 -63.2765 -34.2 -5.6529 24.2227 0.0 0.0 0.0 7.1250 0.0 -0.0 -5.5774 58.4372 1.8366
-32.2595 15.7839 -0.6438 95.7570 79.0248 97.1309 0.0000 0.0000 0.0000 -37.6175 1.7893 1.2141 2.3919 9.6386 27.8140 2.6857 -10.8984 -29.5299 0.2633 3.3011 9.1183 0.0000 0.0000 0.0000 0.6671 1.7318 -29.1768 -9.6993 -17.2373 58.4785 -40.1048 7.2546 172.6149 -0.4976 -4.5226 12.5518 -13.2312 0.3429 14.6013 -4.0026 -1.4566 3.0890 3.4172 -0.4406 -4.6252 -1.8195 -0.4128 -31.3652 4.9555 -0.7370 12.9668 1.9349 0.2150 9.0951 -0.0000 -0.0000 0.0000 10.705 -7.8375 -53.247 105.9999 -59.0103 73.8103 49.9287 -42.1561 33.3825 0.0 0.0 0.0 -7.1250 0.0 0.0 9.2651 -15.1742 11.4953 -0.0000 -0.0000 0.0000 -16.051 42.0363 52.354 -94.1591 -59.9345 -63.6011 -33.9833 -7.0416 22.1434 0.0 0.0 0.0 7.1250 0.0 -0.0 -5.6436 56.0311 1.5306
-31.8203 15.8907 -0.6313 99.0472 78.4120 99.9771 0.0000 0.0000 0.0000 -38.0506 2.3966 4.6732 1.9915 8.8483 25.3221 2.4374 -11.0253 -28.1095 0.2425 3.1689 8.7493 0.0000 0.0000 0.0000 0.2865 1.4379 -31.0167 -10.2452 -17.5455 60.3049 -40.0194 5.8409 172.2459 -0.4051 -4.0861 11.3191 -14.1954 0.0415 15.2863 -3.9222 -2.1098 3.0563 4.1571 -0.7226 -4.8880 -1.5345 -0.1262 -31.2059 4.6345 -0.4181 13.1230 1.8265 0.3354 9.1111 -0.0000 0.0000 0.0000 9.9025 -9.5721 -53.0505 107.9975 -58.74 75.5204 49.5452 -41.2397 33.5963 0.0 0.0 0.0 -7.1250 0.0 0.0 8.9979 -15.2092 11.1605 -0.0000 0.0000 0.0000 -17.1979 44.4521 52.8298 -94.8638 -59.9104 -64.2109 -33.4063 -6.9563 22.1778 0.0 0.0 0.0 7.1250 0.0 -0.0 -4.9868 55.9374 1.3405
-31.5631 15.9360 -0.5049 119.7740 76.3215 121.9040 0.0000 0.0000 0.0000 -37.5580 -0.5292 5.7236 2.0665 9.0032 25.8053 2.0377 -12.2737 -25.7968 0.0600 1.5804 4.3473 0.0000 0.0000 0.0000 0.9661 -3.1875 -36.5556 -10.4602 -17.6607 61.0158 -40.0048 6.1116 171.4132 -0.4448 -4.2793 11.8639 -15.3482 -1.6060 17.1440 -3.4082 -4.8982 2.2450 5.9461 -1.9259 -6.1637 -1.1143 0.1862 -31.1223 4.1956 -0.0967 13.3469 1.6566 0.4511 9.1643 -0.0000 -0.0000 0.0000 9.3354 -11.1165 -52.8512 110.0290 -58.4286 77.2541 49.3897 -40.3603 33.4978 0.0 0.0 0.0 -7.1250 0.0 0.0 8.9510 -15.018 11.0801 -0.0000 -0.0000 0.0000 -18.3748 46.4728 53.4409 -95.0317 -59.9041 -64.3562 -33.0431 -7.068 21.8461 0.0 0.0 0.0 7.1250 0.0 -0.0 -4.6295 55.48 1.1927
-31.1143 16.0364 -0.5014 122.2130 75.7205 124.7620 0.0000 0.0000 0.0000 -37.5192 -0.5269 8.1937 1.7495 8.3235 23.7010 1.7227 -11.3994 -23.6863 0.0070 0.5394 1.4823 0.0000 0.0000 0.0000 0.8330 -3.1904 -39.1795 -11.1065 -17.9868 63.1268 -39.9290 4.9319 170.9519 -0.4805 -4.4450 12.3321 -15.8377 -2.1424 16.7959 -3.1687 -5.6418 2.0638 6.5866 -2.2881 -5.9456 -0.5295 0.6818 -31.6376 3.5047 0.4396 14.0528 1.4175 0.6508 9.4796 -0.0000 -0.0000 0.0000 8.722 -12.1132 -52.7355 112.4966 -57.9986 79.3517 50.0518 -40.4232 33.3224 0.0 0.0 0.0 -7.1250 0.0 0.0 9.3481 -15.1728 11.6005 -0.0000 -0.0000 0.0000 -19.726 48.4513 54.1879 -95.4212 -59.8887 -64.6932 -33.2968 -6.927 22.2381 0.0 0.0 0.0 7.1250 0.0 -0.0 -4.8544 55.9806 1.3099
